<svg width="267" height="40" viewBox="0 0 267 40" fill="none" xmlns="http://www.w3.org/2000/svg">
<path d="M11.6297 12.7478L12.7223 11.6768L11.6956 10.6711L10.6029 11.7421L11.6297 12.7478ZM13.815 10.6113L14.9076 9.54039L13.8809 8.53468L12.7882 9.60563L13.815 10.6113ZM22.0455 18.6624L23.0722 19.6681L20.887 21.81L19.8602 20.8043L22.0455 18.6624ZM28.4805 16.3955L29.5732 15.3246L18.2514 4.25635L17.1588 5.32729L28.4805 16.3955ZM14.9735 7.46374L25.263 17.5317L24.1704 18.6026L22.1114 16.5912L17.7408 20.8696L19.7998 22.881L18.7072 23.9519L16.6482 21.9405L15.5555 23.0114L17.6145 25.0229L16.5219 26.0938L6.22688 16.0204L5.13424 17.0914L16.4505 28.165L21.738 23.0114L27.3769 17.4719L16.0662 6.3928L14.9735 7.46374ZM14.7154 15.7703L13.6887 14.7646L15.874 12.6227L16.9007 13.6285L14.7154 15.7703ZM14.5233 22.0003L21.0846 15.5801L15.9399 10.5461L11.5693 14.8244L14.6551 17.847L17.933 14.6396L18.9597 15.6453L14.5892 19.9236L9.44441 14.8897L10.5371 13.8187L9.5103 12.813L7.32501 14.9549L14.5233 22.0003ZM11.2453 25.2077L4.0416 18.1623L2.94896 19.2332L9.12046 25.2729L8.02782 26.3439L1.85631 20.2987L0.763672 21.3697L8.99418 29.4262L10.0868 28.3553L9.06006 27.3496L11.2453 25.2077ZM20.6344 30.1166L19.6076 29.1109L20.7003 28.04L21.727 29.0457L20.6344 30.1166ZM30.4737 20.489L29.4469 19.4833L30.5395 18.4124L31.5663 19.4181L30.4737 20.489ZM30.5999 16.3357L27.322 19.5431L29.381 21.5545L28.2884 22.6255L26.2294 20.614L21.8588 24.8924L24.9446 27.9149L27.1298 25.7731L26.1031 24.7674L25.0104 25.8383L23.9837 24.8326L26.169 22.6907L29.2547 25.7133L24.8842 29.9916L20.7662 25.9633L17.4882 29.1707L21.6062 33.199L18.3283 36.4064L17.3016 35.4007L19.4868 33.2642L13.3043 27.2191L12.2117 28.29L17.3565 33.324L16.2638 34.395L11.1191 29.361L10.0264 30.4319L18.2569 38.4885L23.7201 33.1392L21.6611 31.1278L22.7538 30.0568L24.8128 32.0683L35.7447 21.3697L34.7179 20.364L30.3474 24.6423L29.3151 23.6366L33.6857 19.3583L30.5999 16.3357Z" fill="#257DFF"/>
<path d="M260.69 8.50762V22.8593C260.69 23.0714 260.515 23.2453 260.301 23.2453H258.088C257.874 23.2453 257.698 23.0714 257.698 22.8593V6.27876C257.698 6.06674 257.874 5.89278 258.088 5.89278H265.517C265.731 5.89278 265.907 6.06674 265.907 6.27876V8.12165C265.907 8.33366 265.731 8.50762 265.517 8.50762H260.69ZM251.735 5.89278H253.948C254.162 5.89278 254.338 6.06674 254.338 6.27876V22.8539C254.338 23.0659 254.162 23.2399 253.948 23.2399H251.735C251.521 23.2399 251.345 23.0659 251.345 22.8539V15.5367H246.513V22.8539C246.513 23.0659 246.338 23.2399 246.124 23.2399H243.911C243.697 23.2399 243.521 23.0659 243.521 22.8539V6.27876C243.521 6.06674 243.697 5.89278 243.911 5.89278H246.124C246.338 5.89278 246.513 6.06674 246.513 6.27876V12.9001H251.345V6.27876C251.351 6.06674 251.521 5.89278 251.735 5.89278ZM235.636 10.0787C235.56 10.3396 235.488 10.5843 235.417 10.818C235.225 11.4758 235.033 12.1445 234.846 12.8186C234.654 13.5035 234.467 14.1776 234.291 14.8463C234.154 15.3736 234.017 15.9064 233.879 16.4446H237.361C237.234 15.9172 237.103 15.3845 236.965 14.8463L236.96 14.83C236.779 14.1342 236.603 13.4601 236.422 12.8186C236.251 12.2152 236.059 11.5519 235.851 10.818C235.779 10.568 235.708 10.3233 235.636 10.0787ZM237.218 6.18634C237.388 6.69191 237.58 7.2899 237.8 7.964C238.03 8.67615 238.223 9.27413 238.382 9.78514L238.387 9.80145C238.574 10.4103 238.766 11.0409 238.958 11.6933C239.14 12.313 239.326 12.9599 239.507 13.634C239.694 14.3027 239.875 14.9985 240.062 15.7107C240.254 16.4391 240.435 17.173 240.617 17.9015C240.803 18.6626 240.99 19.4399 241.171 20.2499C241.363 21.0817 241.544 21.9189 241.731 22.7724C241.775 22.9789 241.643 23.1855 241.429 23.229C241.402 23.2344 241.374 23.2399 241.347 23.2399H239.134C238.936 23.2399 238.772 23.0931 238.75 22.9083C238.673 22.4842 238.612 22.1309 238.558 21.8536C238.503 21.5438 238.431 21.2013 238.354 20.799L238.349 20.7609C238.228 20.1575 238.107 19.5595 237.997 19.005H233.248C233.105 19.6139 232.984 20.2064 232.875 20.7936C232.798 21.1958 232.732 21.5601 232.677 21.8482C232.639 22.0656 232.578 22.3973 232.485 22.9191C232.452 23.104 232.287 23.2399 232.1 23.2399H229.959C229.745 23.2399 229.569 23.0659 229.569 22.8539C229.569 22.8159 229.575 22.7778 229.586 22.7452C229.761 21.8917 229.943 21.0763 230.118 20.2989C230.311 19.4617 230.503 18.668 230.689 17.9069C230.871 17.1785 231.063 16.4446 231.255 15.7161C231.436 15.0311 231.623 14.3353 231.815 13.6449C232.007 12.949 232.194 12.2913 232.381 11.6715C232.573 11.0192 232.765 10.394 232.957 9.79058C233.133 9.23065 233.33 8.61635 233.545 7.964C233.764 7.27903 233.956 6.69191 234.132 6.15372C234.187 5.99063 234.341 5.88735 234.5 5.88735H236.833C237.02 5.89278 237.174 6.01782 237.218 6.18634ZM223.074 14.4331H223.568C224.095 14.4331 224.562 14.3788 224.979 14.2646C225.177 14.2103 225.363 14.145 225.528 14.058C225.693 13.9765 225.841 13.8732 225.967 13.759C226.099 13.6449 226.215 13.5144 226.313 13.3676C226.418 13.2154 226.5 13.0469 226.571 12.8621C226.643 12.6718 226.698 12.4598 226.736 12.2152C226.775 11.9705 226.791 11.6933 226.791 11.3943C226.791 10.8017 226.72 10.307 226.571 9.91018C226.5 9.71447 226.412 9.54051 226.319 9.39373C226.225 9.24695 226.116 9.11648 226 9.00776C225.88 8.89903 225.748 8.80118 225.6 8.72507C225.451 8.64353 225.287 8.58373 225.116 8.5348C224.935 8.48588 224.738 8.44782 224.523 8.42064C224.315 8.39346 224.095 8.38259 223.865 8.38259C223.65 8.38259 223.453 8.38802 223.272 8.3989C223.206 8.40433 223.14 8.40977 223.074 8.41521V14.4331ZM220.389 6.14285C220.971 6.00694 221.553 5.90365 222.129 5.83298C222.706 5.76231 223.277 5.72969 223.843 5.72969C224.276 5.72969 224.705 5.75688 225.111 5.81124H225.122C225.528 5.8656 225.907 5.94171 226.269 6.045C226.643 6.15372 226.989 6.28963 227.313 6.45815C227.642 6.62668 227.939 6.82782 228.208 7.05614C228.482 7.2899 228.724 7.55628 228.938 7.85527C229.147 8.15427 229.328 8.48588 229.47 8.84467C229.619 9.20346 229.723 9.60031 229.8 10.0298C229.871 10.4538 229.91 10.9159 229.91 11.4051C229.91 11.8998 229.871 12.3674 229.8 12.7968C229.723 13.2372 229.613 13.634 229.465 13.9982C229.317 14.3625 229.136 14.6941 228.916 14.9985C228.702 15.3029 228.449 15.5693 228.175 15.8031C227.9 16.0314 227.593 16.2325 227.258 16.4011C226.928 16.5642 226.571 16.7001 226.193 16.8034C225.819 16.9012 225.424 16.9773 225.012 17.0317C224.6 17.0806 224.167 17.1078 223.722 17.1078H223.079V22.8702C223.079 23.0822 222.904 23.2562 222.69 23.2562H220.477C220.263 23.2562 220.087 23.0822 220.087 22.8702V6.51795C220.081 6.33312 220.213 6.1809 220.389 6.14285ZM212.746 2.81042C212.922 2.81042 213.07 2.78868 213.191 2.73975C213.306 2.69626 213.405 2.62559 213.487 2.53317C213.581 2.42989 213.657 2.29398 213.729 2.12002C213.806 1.92431 213.866 1.69055 213.91 1.41331C213.943 1.20129 214.141 1.05995 214.355 1.09257L214.377 1.098L215.925 1.42961C216.134 1.4731 216.271 1.67968 216.222 1.88626V1.89713C216.134 2.44076 215.991 2.91371 215.799 3.31056C215.59 3.73459 215.327 4.07707 215.003 4.33258L214.986 4.34889C214.679 4.59352 214.338 4.77835 213.965 4.89795C213.586 5.02298 213.18 5.08822 212.746 5.08822C211.867 5.08822 211.115 4.83815 210.484 4.33258C210.16 4.07164 209.896 3.73459 209.688 3.31056C209.49 2.90828 209.347 2.42445 209.259 1.86995C209.226 1.66881 209.364 1.47854 209.561 1.43505L211.11 1.098C211.318 1.05451 211.527 1.18498 211.571 1.39156C211.576 1.40787 211.576 1.41874 211.576 1.43505C211.62 1.70143 211.681 1.92975 211.752 2.12002C211.823 2.29398 211.9 2.42989 211.994 2.53317C212.076 2.62559 212.175 2.69626 212.29 2.73975C212.422 2.78324 212.57 2.81042 212.746 2.81042ZM218.275 6.40923C218.066 7.19748 217.825 8.05098 217.55 8.98058C217.281 9.883 216.974 10.8778 216.622 11.9705C216.271 13.0632 215.87 14.2266 215.425 15.4606C214.975 16.7001 214.486 17.9939 213.954 19.3366L213.948 19.353C213.679 20.0434 213.394 20.6413 213.092 21.1415C212.784 21.6579 212.455 22.082 212.109 22.4081C211.747 22.7452 211.329 22.9953 210.857 23.1638C210.39 23.3269 209.874 23.4138 209.303 23.4138C209.204 23.4138 209.089 23.4084 208.957 23.3921C208.826 23.3812 208.688 23.3595 208.546 23.3377C208.397 23.3106 208.238 23.2779 208.073 23.2344C207.909 23.191 207.738 23.142 207.574 23.0822C207.382 23.017 207.272 22.8159 207.321 22.6201L207.711 20.8207C207.755 20.6142 207.964 20.4783 208.172 20.5218C208.205 20.5272 208.238 20.5435 208.271 20.5544C208.342 20.587 208.414 20.6142 208.485 20.6359C208.562 20.6631 208.639 20.6848 208.716 20.7012H208.727C208.798 20.7175 208.87 20.7283 208.952 20.7338C209.029 20.7392 209.122 20.7446 209.221 20.7446C209.473 20.7446 209.693 20.7066 209.874 20.6305C210.05 20.5598 210.198 20.4456 210.319 20.2989C210.467 20.1249 210.61 19.9129 210.753 19.6628C210.896 19.4073 211.033 19.1192 211.165 18.793L211.401 18.195C210.918 17.0752 210.467 15.9934 210.055 14.9605C209.616 13.8623 209.21 12.7968 208.842 11.7694C208.837 11.7585 208.837 11.7476 208.831 11.7368C208.458 10.6984 208.123 9.74709 207.837 8.87729C207.546 7.98574 207.288 7.15399 207.074 6.38748C207.019 6.1809 207.14 5.96889 207.343 5.91453C207.376 5.90366 207.414 5.89822 207.447 5.89822H209.66C209.847 5.89822 210.006 6.03413 210.045 6.20809C210.215 6.88762 210.412 7.57802 210.632 8.28474C210.852 9.00776 211.104 9.7634 211.384 10.5517C211.659 11.3345 211.955 12.1336 212.268 12.9599C212.46 13.4655 212.658 13.9765 212.861 14.4929C213.037 13.9765 213.207 13.4709 213.366 12.9817C213.641 12.1499 213.893 11.3454 214.13 10.5734C214.366 9.80689 214.585 9.05125 214.788 8.30104C214.992 7.56171 215.167 6.86044 215.316 6.19721C215.354 6.01782 215.519 5.89822 215.694 5.89822H217.907C218.121 5.89822 218.297 6.07218 218.297 6.28419C218.302 6.32225 218.291 6.36574 218.275 6.40923ZM202.484 23.5987C201.43 23.5987 200.485 23.403 199.667 23.017C198.838 22.6256 198.141 22.0439 197.57 21.2665C196.455 19.7498 195.895 17.434 195.895 14.319C195.895 12.737 196.054 11.3943 196.367 10.2907C196.527 9.73622 196.713 9.23064 196.938 8.774L196.949 8.75769C197.169 8.30648 197.421 7.9042 197.707 7.55084C197.998 7.18661 198.316 6.87675 198.662 6.62124C199.008 6.3603 199.387 6.14829 199.788 5.9852C200.178 5.82755 200.59 5.71339 201.018 5.63184C201.446 5.5503 201.891 5.51224 202.341 5.51224C203.099 5.51224 203.807 5.6101 204.466 5.8058C204.795 5.90366 205.097 6.01238 205.366 6.13198C205.641 6.25701 205.888 6.39292 206.108 6.5397C206.261 6.64299 206.311 6.83869 206.245 7.00178L205.586 8.78487C205.515 8.98601 205.29 9.0893 205.086 9.01319C205.059 9.00232 205.032 8.99145 205.01 8.97514C204.823 8.85554 204.631 8.74682 204.439 8.64897C204.246 8.55111 204.038 8.46957 203.824 8.39346C203.615 8.32279 203.395 8.26843 203.165 8.23037C202.929 8.19232 202.671 8.17601 202.391 8.17601C201.803 8.17601 201.298 8.29017 200.881 8.52393C200.469 8.75225 200.134 9.10017 199.876 9.56769C199.601 10.0624 199.393 10.6984 199.255 11.4813C199.113 12.2804 199.041 13.2317 199.041 14.3244C199.041 16.5098 199.338 18.1842 199.936 19.3421C200.216 19.8803 200.573 20.288 201.018 20.5489C201.463 20.8153 202.006 20.9458 202.638 20.9458C202.956 20.9458 203.242 20.9295 203.494 20.8914C203.741 20.8534 203.955 20.8044 204.131 20.7338C204.323 20.6577 204.521 20.5707 204.713 20.4728C204.9 20.375 205.092 20.2662 205.279 20.1467C205.46 20.0325 205.701 20.0814 205.817 20.2608C205.839 20.2934 205.855 20.3315 205.866 20.3695L206.47 22.0385C206.53 22.1961 206.47 22.3755 206.344 22.4734C206.135 22.631 205.894 22.7778 205.625 22.9137C205.361 23.0442 205.064 23.1638 204.741 23.2779C204.411 23.3921 204.054 23.4736 203.681 23.528C203.302 23.5715 202.907 23.5987 202.484 23.5987ZM185.858 5.89278H188.071C188.285 5.89278 188.461 6.06674 188.461 6.27876V22.8539C188.461 23.0659 188.285 23.2399 188.071 23.2399H185.858C185.644 23.2399 185.468 23.0659 185.468 22.8539V15.5367H180.637V22.8539C180.637 23.0659 180.461 23.2399 180.247 23.2399H178.034C177.82 23.2399 177.644 23.0659 177.644 22.8539V6.27876C177.644 6.06674 177.82 5.89278 178.034 5.89278H180.247C180.461 5.89278 180.637 6.06674 180.637 6.27876V12.9001H185.468V6.27876C185.468 6.06674 185.639 5.89278 185.858 5.89278ZM169.754 10.0787C169.677 10.3396 169.606 10.5843 169.534 10.818C169.342 11.4758 169.15 12.1445 168.963 12.8186C168.771 13.5035 168.585 14.1776 168.409 14.8463C168.272 15.3736 168.134 15.9064 167.997 16.4446H171.478C171.352 15.9172 171.22 15.3845 171.083 14.8463L171.077 14.83C170.896 14.1342 170.72 13.4601 170.539 12.8186C170.369 12.2152 170.182 11.5519 169.968 10.818C169.897 10.568 169.825 10.3233 169.754 10.0787ZM171.335 6.18634C171.506 6.69191 171.698 7.2899 171.917 7.964C172.148 8.67615 172.34 9.27413 172.499 9.78514L172.505 9.80145C172.692 10.4103 172.884 11.0409 173.076 11.6933C173.257 12.313 173.444 12.9599 173.63 13.634C173.812 14.3027 173.998 14.9985 174.185 15.7107C174.377 16.4391 174.558 17.173 174.74 17.9015C174.926 18.6626 175.113 19.4399 175.294 20.2499C175.486 21.0817 175.667 21.9189 175.854 22.7724C175.898 22.9789 175.766 23.1855 175.558 23.229C175.53 23.2344 175.503 23.2399 175.475 23.2399H173.263C173.065 23.2399 172.9 23.0931 172.878 22.9083C172.801 22.4842 172.741 22.1309 172.686 21.8536C172.631 21.5438 172.56 21.2013 172.483 20.799L172.477 20.7609C172.357 20.1575 172.236 19.5595 172.126 19.005H167.377C167.234 19.6139 167.113 20.2064 167.003 20.7936C166.926 21.1958 166.86 21.5601 166.806 21.8482C166.767 22.0656 166.707 22.3973 166.613 22.9191C166.58 23.104 166.416 23.2399 166.229 23.2399H164.088C163.874 23.2399 163.698 23.0659 163.698 22.8539C163.698 22.8159 163.703 22.7778 163.714 22.7452C163.89 21.8917 164.071 21.0763 164.247 20.2989C164.439 19.4617 164.631 18.668 164.818 17.9069C164.999 17.1785 165.191 16.4446 165.383 15.7161C165.565 15.0311 165.751 14.3353 165.944 13.6449C166.136 12.949 166.322 12.2913 166.509 11.6715C166.701 11.0192 166.893 10.394 167.086 9.79058C167.261 9.23065 167.459 8.61635 167.673 7.964C167.893 7.27903 168.085 6.69191 168.261 6.15372C168.315 5.99063 168.469 5.88735 168.628 5.88735H170.962C171.143 5.89278 171.291 6.01782 171.335 6.18634ZM155.22 8.50762C155.204 10.9539 155.061 13.2154 154.786 15.2866C154.638 16.3902 154.419 17.434 154.128 18.4179C153.892 19.2007 153.611 19.9455 153.288 20.6522H157.889V8.50762H155.22ZM159.613 27.279V23.2399H151.19V27.279C151.19 27.491 151.014 27.665 150.8 27.665H148.686C148.472 27.665 148.297 27.491 148.297 27.279V21.0382C148.297 20.8262 148.472 20.6522 148.686 20.6522H149.971C150.174 20.3206 150.361 19.9781 150.526 19.6193C150.723 19.2007 150.899 18.755 151.058 18.2875C151.218 17.8091 151.36 17.3198 151.476 16.8251C151.596 16.3032 151.706 15.7759 151.794 15.2377C151.97 14.1342 152.091 12.949 152.145 11.6824C152.173 11.0355 152.195 10.3723 152.211 9.69273C152.222 9.05125 152.233 8.33366 152.233 7.55084V6.28419C152.233 6.07218 152.409 5.89822 152.623 5.89822H160.497C160.711 5.89822 160.887 6.07218 160.887 6.28419V20.6577H162.122C162.336 20.6577 162.512 20.8316 162.512 21.0436V27.2845C162.512 27.4965 162.336 27.6704 162.122 27.6704H160.008C159.783 27.665 159.613 27.491 159.613 27.279ZM135.943 22.8539V6.27876C135.943 6.06674 136.118 5.89278 136.332 5.89278H138.397C138.611 5.89278 138.787 6.06674 138.787 6.27876V16.3739C138.984 15.9553 139.182 15.5313 139.385 15.1127C139.852 14.145 140.341 13.1774 140.851 12.2152C141.373 11.2258 141.927 10.2309 142.509 9.21977C143.086 8.2195 143.717 7.1703 144.398 6.07762C144.47 5.95802 144.596 5.89822 144.728 5.89822H146.49C146.704 5.89822 146.88 6.07218 146.88 6.28419V22.8593C146.88 23.0714 146.704 23.2453 146.49 23.2453H144.426C144.211 23.2453 144.036 23.0714 144.036 22.8593V11.6063L143.92 11.8129C143.646 12.3076 143.36 12.8349 143.069 13.3839C142.767 13.9656 142.482 14.5147 142.218 15.0257C141.922 15.6128 141.642 16.1619 141.389 16.6729C141.131 17.1948 140.862 17.7438 140.588 18.3255C140.33 18.8691 140.072 19.4128 139.819 19.9673C139.561 20.5272 139.325 21.0545 139.111 21.5438C138.886 22.0548 138.677 22.5386 138.485 23.0061C138.424 23.1529 138.276 23.2453 138.128 23.2453H136.332C136.118 23.2399 135.943 23.0714 135.943 22.8539ZM113.348 11.3019L115.935 6.11023C116 5.97433 116.138 5.89822 116.28 5.89822H118.422C118.636 5.89822 118.812 6.07218 118.812 6.28419C118.812 6.34943 118.795 6.41466 118.762 6.46903L114.853 14.2374C115.062 14.6343 115.325 15.1344 115.633 15.6998C115.929 16.2597 116.237 16.836 116.555 17.4231L116.566 17.4394C116.879 18.0211 117.175 18.5973 117.455 19.1627C117.708 19.6791 117.944 20.1738 118.158 20.6468H119.652C119.833 20.6468 119.987 20.7718 120.031 20.9403C120.085 20.8969 120.151 20.8697 120.223 20.8642H120.234C120.547 20.8153 120.832 20.7338 121.101 20.625C121.365 20.5163 121.612 20.375 121.826 20.2064C122.035 20.0434 122.232 19.815 122.414 19.5215C122.6 19.2116 122.776 18.8311 122.93 18.3744C123.039 18.0483 123.138 17.7112 123.226 17.3633C123.314 17.0154 123.391 16.6511 123.451 16.2815C123.517 15.9118 123.572 15.5258 123.616 15.1344C123.66 14.7484 123.698 14.3516 123.726 13.9602C123.753 13.547 123.781 13.1448 123.797 12.7588C123.814 12.3456 123.83 11.9433 123.836 11.5411C123.841 11.1279 123.852 10.7256 123.852 10.3342C123.858 10.0352 123.858 9.6438 123.858 9.17085V6.27876C123.858 6.06674 124.033 5.89278 124.247 5.89278H132.192C132.407 5.89278 132.582 6.06674 132.582 6.27876V22.8539C132.582 23.0659 132.407 23.2399 132.192 23.2399H129.98C129.766 23.2399 129.59 23.0659 129.59 22.8539V8.48044H126.801V9.17085C126.801 9.51333 126.795 9.92105 126.79 10.4049C126.784 10.8289 126.773 11.2475 126.762 11.6661C126.751 12.101 126.729 12.525 126.707 12.9436C126.68 13.3894 126.652 13.8134 126.614 14.2157C126.581 14.618 126.532 15.0366 126.477 15.4769C126.422 15.9064 126.361 16.3195 126.29 16.7218C126.219 17.1295 126.142 17.5372 126.048 17.9341C125.96 18.3201 125.862 18.706 125.752 19.0866C125.549 19.7933 125.285 20.4185 124.967 20.9567C124.643 21.5057 124.264 21.9678 123.825 22.3429C123.38 22.7234 122.875 23.0061 122.315 23.1964C121.76 23.3812 121.145 23.4791 120.481 23.4791C120.278 23.4791 120.107 23.3214 120.091 23.1203L120.031 22.631V27.2845C120.031 27.4965 119.855 27.6704 119.641 27.6704H117.527C117.313 27.6704 117.137 27.4965 117.137 27.2845V23.2453H116.517C116.335 23.2453 116.187 23.1257 116.143 22.9626C116.066 22.7669 115.973 22.5277 115.858 22.2559C115.764 22.0167 115.649 21.7503 115.523 21.4459C115.396 21.1469 115.27 20.8534 115.144 20.5761C115.023 20.3043 114.886 20.0162 114.743 19.7118C114.6 19.4128 114.452 19.1138 114.309 18.8202C114.178 18.5538 114.024 18.2548 113.854 17.9178L113.843 17.896L113.365 16.961L113.294 16.8142L113.189 17.0154C113.184 17.0262 113.178 17.0371 113.173 17.0425C112.981 17.4177 112.816 17.7384 112.723 17.9123L112.712 17.9341C112.574 18.2005 112.426 18.4886 112.267 18.8093C112.119 19.1029 111.97 19.4019 111.828 19.7009L111.822 19.7118C111.674 20.0162 111.537 20.3097 111.41 20.5816C111.273 20.8805 111.147 21.1632 111.026 21.4296C110.905 21.7069 110.795 21.9732 110.696 22.2342C110.598 22.4897 110.51 22.7397 110.438 22.9735C110.389 23.1366 110.235 23.2453 110.065 23.2453H108.006C107.792 23.2453 107.616 23.0714 107.616 22.8593C107.616 22.805 107.627 22.7561 107.649 22.7071C107.77 22.3973 107.902 22.0711 108.055 21.7286C108.198 21.4079 108.352 21.0708 108.528 20.7229C108.703 20.3695 108.879 20.0162 109.06 19.6628C109.302 19.179 109.483 18.8311 109.615 18.5756C109.944 17.9341 110.323 17.2002 110.762 16.363L111.333 15.2703C111.339 15.2595 111.344 15.2486 111.35 15.2431L111.795 14.4005L107.764 6.45815C107.671 6.26788 107.748 6.03956 107.94 5.94171C107.995 5.91453 108.055 5.90365 108.116 5.90365H110.334C110.493 5.90365 110.631 6.00151 110.691 6.13741L113.348 11.3019ZM101.285 10.0787C101.209 10.3396 101.137 10.5843 101.066 10.818C100.874 11.4758 100.681 12.1445 100.495 12.8186C100.303 13.5035 100.116 14.1776 99.9402 14.8463C99.803 15.3736 99.6657 15.9064 99.5285 16.4446H103.01C102.883 15.9118 102.751 15.3736 102.614 14.8409C102.433 14.1396 102.252 13.4655 102.076 12.8186C101.906 12.2152 101.719 11.5519 101.505 10.818C101.434 10.568 101.362 10.3233 101.285 10.0787ZM102.872 6.1809C103.037 6.68104 103.235 7.28446 103.454 7.95856C103.685 8.67071 103.877 9.27413 104.036 9.77971L104.042 9.79602C104.234 10.4049 104.421 11.0355 104.613 11.6878C104.794 12.3076 104.981 12.9599 105.167 13.634C105.354 14.3027 105.535 14.9931 105.722 15.7107C105.914 16.4391 106.095 17.173 106.276 17.9015C106.463 18.6626 106.65 19.4399 106.831 20.2499C107.023 21.0817 107.204 21.9189 107.391 22.7724C107.435 22.9789 107.303 23.1855 107.089 23.229C107.062 23.2344 107.034 23.2399 107.007 23.2399H104.794C104.596 23.2399 104.437 23.0931 104.41 22.9083C104.333 22.4842 104.272 22.1309 104.217 21.8536C104.163 21.5438 104.091 21.2013 104.014 20.799L103.998 20.7229C103.883 20.1358 103.762 19.5432 103.652 19.005H98.9025C98.7598 19.6139 98.639 20.2064 98.5291 20.7936C98.4523 21.2013 98.3864 21.5655 98.3315 21.8482C98.2876 22.0765 98.2272 22.4081 98.1393 22.9191C98.1064 23.104 97.9416 23.2399 97.755 23.2399H95.6136C95.3995 23.2399 95.2238 23.0659 95.2238 22.8539C95.2238 22.8159 95.2293 22.7778 95.2402 22.7452C95.4159 21.8917 95.5971 21.0763 95.7728 20.2989C95.965 19.4617 96.1572 18.668 96.3439 17.9069C96.5251 17.1785 96.7172 16.4446 96.9094 15.7161C97.0906 15.0311 97.2773 14.3353 97.4694 13.6449C97.6616 12.949 97.8483 12.2913 98.035 11.6715C98.2272 11.0192 98.4193 10.394 98.6115 9.79058C98.7872 9.23065 98.9849 8.61635 99.1935 7.964C99.4186 7.26816 99.6053 6.69191 99.781 6.15372C99.8359 5.99063 99.9842 5.88735 100.149 5.88735H102.482C102.675 5.89278 102.828 6.01782 102.872 6.1809ZM83.0674 14.4331H83.5616C84.0887 14.4331 84.5554 14.3788 84.9727 14.2646C85.1704 14.2103 85.357 14.145 85.5218 14.058C85.6865 13.9765 85.8292 13.8732 85.961 13.759C86.0928 13.6449 86.2081 13.5144 86.3069 13.3676C86.4113 13.2154 86.4936 13.0469 86.565 12.8621C86.6364 12.6772 86.6913 12.4598 86.7297 12.2152C86.7682 11.9705 86.7846 11.6933 86.7846 11.3943C86.7846 10.8017 86.7077 10.307 86.565 9.91018C86.4936 9.71447 86.4058 9.54051 86.3124 9.39373C86.2191 9.24695 86.1093 9.11648 85.994 9.00776C85.8732 8.89903 85.7414 8.80118 85.5931 8.72507C85.4449 8.64353 85.2802 8.58373 85.11 8.5348C84.9288 8.48588 84.7311 8.44782 84.517 8.42064C84.3083 8.39346 84.0887 8.38259 83.8581 8.38259C83.644 8.38259 83.4463 8.38802 83.2651 8.3989C83.1992 8.40433 83.1333 8.40977 83.0674 8.41521V14.4331ZM80.3825 6.14285C80.9645 6.00694 81.5465 5.90365 82.1176 5.83298C82.6941 5.76231 83.2651 5.72969 83.8306 5.72969C84.2644 5.72969 84.6927 5.75688 85.099 5.81124H85.11C85.5108 5.8656 85.8951 5.94171 86.2575 6.045C86.6309 6.15372 86.9823 6.28963 87.3007 6.45815L87.3227 6.46903C87.6412 6.63755 87.9322 6.83325 88.1957 7.05614C88.4703 7.2899 88.7118 7.55628 88.926 7.85527C89.1346 8.15427 89.3158 8.48588 89.4586 8.84467C89.6068 9.20346 89.7111 9.60031 89.788 10.0298C89.8594 10.4538 89.8978 10.9159 89.8978 11.4051C89.8978 11.8998 89.8594 12.3674 89.788 12.7968C89.7111 13.2372 89.6013 13.634 89.4531 13.9982C89.3048 14.3625 89.1236 14.6941 88.904 14.9985C88.6899 15.3029 88.4373 15.5693 88.1628 15.8031C87.8882 16.0314 87.5808 16.2325 87.2458 16.4011C86.9164 16.5642 86.5595 16.7001 86.1806 16.8034C85.8073 16.9012 85.4119 16.9773 85.0001 17.0317C84.5884 17.0806 84.1546 17.1078 83.7099 17.1078H83.0674V22.8702C83.0674 23.0822 82.8917 23.2562 82.6776 23.2562H80.4649C80.2507 23.2562 80.075 23.0822 80.075 22.8702V6.51795C80.075 6.33312 80.2068 6.1809 80.3825 6.14285ZM77.8403 6.51795C77.6482 6.81151 77.456 7.0942 77.2693 7.37144C77.0991 7.62695 76.8904 7.92594 76.6379 8.28474L75.9515 9.27957C75.7539 9.57313 75.5233 9.90474 75.2542 10.3016L75.2432 10.3179C75.0071 10.6658 74.771 11.0029 74.5349 11.3345C74.2769 11.6987 74.0408 12.0358 73.8102 12.3511C73.5576 12.699 73.3215 13.0252 73.0964 13.3241L73.0854 13.3405C72.9262 13.5579 72.767 13.7645 72.6187 13.9602C72.7944 14.1396 72.9811 14.3407 73.1678 14.5527C73.4368 14.8572 73.7168 15.1942 74.0133 15.5639C74.2989 15.9227 74.5844 16.3032 74.8754 16.6946C75.1719 17.0969 75.4574 17.4938 75.7264 17.8852C76.0119 18.2983 76.281 18.706 76.5445 19.1138C76.7971 19.5052 77.0552 19.9238 77.3132 20.3587C77.5658 20.7881 77.7909 21.1958 77.9886 21.5764C78.1862 21.9624 78.3674 22.3429 78.5157 22.7017C78.598 22.8974 78.5047 23.1203 78.307 23.2018C78.2576 23.2236 78.2082 23.229 78.1588 23.229H75.677C75.5123 23.229 75.3695 23.1257 75.3146 22.9844C75.1444 22.6201 74.9632 22.2559 74.771 21.8971C74.5844 21.5492 74.3757 21.1795 74.1451 20.7827L74.1341 20.7609C73.909 20.3804 73.6839 20.0162 73.4588 19.6683C73.2282 19.3095 72.9866 18.9507 72.734 18.5919L72.7285 18.581C72.4924 18.244 72.2453 17.9123 71.9928 17.5807C71.7402 17.2546 71.4876 16.9447 71.2351 16.6457C70.9825 16.3467 70.7354 16.0749 70.4938 15.8303L70.4115 15.7487V22.843C70.4115 23.055 70.2358 23.229 70.0216 23.229H67.8089C67.5947 23.229 67.419 23.055 67.419 22.843V6.27876C67.419 6.06674 67.5947 5.89278 67.8089 5.89278H70.0216C70.2358 5.89278 70.4115 6.06674 70.4115 6.27876V12.4598C70.6256 12.1717 70.8452 11.8781 71.0594 11.5791C71.3943 11.1062 71.6304 10.7691 71.7677 10.5788L72.4705 9.57857L72.4869 9.55682C72.734 9.20346 72.9536 8.88816 73.1458 8.60004C73.3764 8.25755 73.5906 7.94769 73.7827 7.65957C73.9804 7.36601 74.1671 7.08332 74.3373 6.82238C74.524 6.53426 74.6832 6.28963 74.8095 6.08305C74.8809 5.96345 75.0071 5.90365 75.1389 5.90365H77.5493C77.7635 5.90365 77.9392 6.07762 77.9392 6.28963C77.9282 6.37117 77.8952 6.45272 77.8403 6.51795ZM53.1104 22.8539V6.27876C53.1104 6.06674 53.2861 5.89278 53.5002 5.89278H55.5647C55.7788 5.89278 55.9545 6.06674 55.9545 6.27876V16.3739C56.1522 15.9553 56.3499 15.5313 56.553 15.1127C57.0197 14.145 57.5084 13.1774 58.019 12.2152C58.5406 11.2258 59.0952 10.2309 59.6772 9.21977C60.2537 8.2195 60.8852 7.1703 61.566 6.07762C61.6374 5.95802 61.7637 5.89822 61.8954 5.89822H63.6579C63.8721 5.89822 64.0478 6.07218 64.0478 6.28419V22.8593C64.0478 23.0714 63.8721 23.2453 63.6579 23.2453H61.5935C61.3793 23.2453 61.2036 23.0714 61.2036 22.8593V11.6063L61.0883 11.8074C60.8138 12.3021 60.5283 12.8294 60.2373 13.3839C59.9353 13.9602 59.6498 14.5093 59.3862 15.0203C59.0842 15.6074 58.8097 16.1564 58.5516 16.6729C58.2936 17.1948 58.0245 17.7438 57.75 18.3255C57.4919 18.8691 57.2339 19.4128 56.9813 19.9673C56.7232 20.5272 56.4871 21.0545 56.273 21.5438C56.0479 22.0548 55.8392 22.5386 55.6471 23.0061C55.5867 23.1529 55.4384 23.2453 55.2902 23.2453H53.4947C53.2861 23.2399 53.1104 23.0714 53.1104 22.8539ZM48.35 13.9276C48.5367 14.0309 48.7124 14.1505 48.8771 14.2755C49.245 14.5527 49.5744 14.8844 49.8599 15.2703C50.1564 15.6617 50.376 16.1021 50.5188 16.5913C50.6615 17.0752 50.7329 17.597 50.7329 18.1679C50.7329 18.6082 50.6945 19.0322 50.6231 19.4236C50.5462 19.8205 50.4364 20.1901 50.2827 20.5326C50.1344 20.8751 49.9532 21.185 49.7501 21.4677C49.5415 21.7558 49.3108 22.0113 49.0528 22.2396C48.7947 22.4625 48.5147 22.6582 48.2072 22.8322C47.9052 23.0007 47.5813 23.142 47.2299 23.2616C46.884 23.3758 46.5326 23.4628 46.1592 23.5171C45.7858 23.5769 45.407 23.6041 45.0281 23.6041C44.6987 23.6041 44.3692 23.5824 44.0343 23.5389C43.7049 23.4954 43.3809 23.4356 43.0625 23.3486C42.7495 23.2671 42.442 23.1692 42.1455 23.055C41.849 22.9409 41.569 22.8159 41.3 22.6691C41.1352 22.5821 41.0584 22.3864 41.1133 22.2179L41.6569 20.4946C41.7227 20.2934 41.9369 20.1793 42.1455 20.2391C42.1785 20.2499 42.2059 20.2608 42.2334 20.2826C42.4585 20.3967 42.6836 20.5 42.9142 20.5924L42.9307 20.5979C43.1558 20.6903 43.3809 20.7664 43.617 20.8371C43.8421 20.9023 44.0782 20.9512 44.3143 20.9893C44.5449 21.0219 44.7865 21.0382 45.0336 21.0382C45.4344 21.0382 45.8078 20.9838 46.1537 20.8697C46.3239 20.8153 46.4777 20.7446 46.6204 20.6631C46.7632 20.5761 46.9004 20.4783 47.0212 20.3695C47.142 20.2608 47.2518 20.1303 47.3452 19.989C47.444 19.8422 47.5264 19.6791 47.5978 19.4943C47.6691 19.3095 47.724 19.1083 47.7625 18.8909C47.8009 18.668 47.8174 18.4234 47.8174 18.1515C47.8174 17.6895 47.7405 17.2872 47.5923 16.9393C47.444 16.5968 47.2244 16.3087 46.9334 16.064L46.9114 16.0423C46.6149 15.8031 46.2745 15.6182 45.8792 15.4932C45.4729 15.3627 45.0062 15.3029 44.4845 15.3029H43.315C43.1009 15.3029 42.9252 15.129 42.9252 14.917V13.2209C42.9252 13.0088 43.1009 12.8349 43.315 12.8349H44.4955C44.9293 12.8349 45.3136 12.7805 45.6595 12.6772C46 12.5739 46.302 12.4163 46.5655 12.2152C46.8126 12.0249 46.9993 11.7748 47.1256 11.4758C47.2573 11.1605 47.3232 10.7909 47.3232 10.3505C47.3232 9.96454 47.2738 9.62749 47.1695 9.34481C47.0761 9.07843 46.9334 8.85554 46.7412 8.68158C46.549 8.50219 46.3184 8.36628 46.0604 8.27386C45.7913 8.18145 45.4784 8.13252 45.127 8.13252C44.8854 8.13252 44.6438 8.15427 44.4132 8.18688H44.3967C44.1716 8.22494 43.9465 8.2793 43.7213 8.35541C43.4852 8.43695 43.2711 8.5185 43.0789 8.60548C42.8868 8.69246 42.7166 8.78487 42.5683 8.87729C42.3871 8.99145 42.1455 8.93709 42.0357 8.75769C42.0192 8.73595 42.0083 8.70876 41.9973 8.68702L41.3549 7.01265C41.2835 6.83325 41.3659 6.63211 41.5306 6.5397C41.7941 6.38205 42.0741 6.2407 42.3706 6.12111C42.6671 5.99607 42.9746 5.89278 43.3041 5.80037C43.628 5.71339 43.9574 5.64271 44.2814 5.59922C44.6108 5.55573 44.9403 5.53399 45.2642 5.53399C45.6211 5.53399 45.9615 5.56117 46.291 5.61553C46.6259 5.6699 46.9389 5.75688 47.2409 5.8656C47.5428 5.97976 47.8229 6.11023 48.0809 6.26788C48.3445 6.42554 48.5861 6.60493 48.8057 6.80607C49.0308 7.00722 49.2285 7.23554 49.3987 7.48561C49.5689 7.73024 49.7171 8.00205 49.8379 8.29561C49.9587 8.58373 50.0466 8.8936 50.107 9.2089C50.1674 9.52964 50.2003 9.85581 50.2003 10.1983C50.2003 10.6386 50.1454 11.0627 50.0411 11.4704C49.9368 11.8781 49.7775 12.2641 49.5689 12.6174C49.3548 12.9762 49.0912 13.3024 48.7673 13.5851C48.6575 13.7101 48.5092 13.8188 48.35 13.9276Z" fill="#257DFF"/>
<path d="M265.518 38.6953H259.204C258.99 38.6953 258.814 38.5213 258.814 38.3093V37.5048C258.814 37.4123 258.847 37.3254 258.902 37.2601L263.344 30.7638H259.352C259.138 30.7638 258.962 30.5898 258.962 30.3778V29.4482C258.962 29.2362 259.138 29.0622 259.352 29.0622H265.376C265.59 29.0622 265.765 29.2362 265.765 29.4482V30.2528C265.765 30.3452 265.732 30.4322 265.678 30.4974L261.236 36.9937H265.518C265.732 36.9937 265.908 37.1677 265.908 37.3797V38.3093C265.903 38.5213 265.732 38.6953 265.518 38.6953ZM251.561 29.4482V35.1835C251.561 35.738 251.473 36.2327 251.298 36.6784C251.116 37.1297 250.847 37.5211 250.49 37.8527C250.133 38.1788 249.711 38.4235 249.228 38.5866C248.75 38.7442 248.217 38.8258 247.624 38.8258C247.031 38.8258 246.499 38.7442 246.026 38.5866C245.543 38.4235 245.131 38.1734 244.786 37.8418C244.44 37.5102 244.187 37.1188 244.011 36.6621C243.841 36.2164 243.759 35.7162 243.759 35.1617V29.4482C243.759 29.2362 243.935 29.0622 244.149 29.0622H245.214C245.428 29.0622 245.604 29.2362 245.604 29.4482V35.2324C245.604 35.5586 245.648 35.8413 245.735 36.0805C245.818 36.3088 245.944 36.499 246.109 36.6567C246.274 36.8143 246.482 36.9339 246.735 37.0155C247.004 37.1025 247.317 37.146 247.685 37.146C248.031 37.146 248.333 37.1025 248.591 37.0155C248.832 36.9339 249.035 36.8143 249.206 36.6513C249.37 36.4936 249.497 36.2979 249.579 36.0696C249.667 35.8304 249.711 35.5423 249.711 35.2161V29.4482C249.711 29.2362 249.886 29.0622 250.101 29.0622H251.166C251.385 29.0622 251.561 29.2362 251.561 29.4482ZM234.029 37.6678C234.029 37.4993 234.051 37.3417 234.095 37.2003C234.145 37.0427 234.222 36.9122 234.32 36.798C234.425 36.6839 234.551 36.5969 234.699 36.5425C234.837 36.4882 234.985 36.4664 235.155 36.4664C235.32 36.4664 235.473 36.4936 235.611 36.5425C235.759 36.5969 235.891 36.6784 236.001 36.7926C236.11 36.9068 236.193 37.0372 236.242 37.1949C236.292 37.3362 236.313 37.4939 236.313 37.6678C236.313 37.8364 236.292 37.994 236.242 38.1408C236.187 38.2984 236.11 38.4289 236.001 38.5431L235.99 38.5539C235.88 38.6627 235.753 38.7388 235.611 38.7931C235.473 38.8475 235.32 38.8693 235.155 38.8693C235.001 38.8693 234.864 38.8475 234.727 38.7986C234.589 38.7497 234.469 38.679 234.359 38.5811L234.348 38.5703C234.238 38.467 234.15 38.3311 234.095 38.168C234.057 38.0158 234.029 37.8527 234.029 37.6678ZM220.462 38.4289L218.145 32.5849V32.6774V38.3148C218.145 38.5268 217.969 38.7007 217.755 38.7007H216.767C216.553 38.7007 216.377 38.5268 216.377 38.3148V29.4537C216.377 29.2416 216.553 29.0677 216.767 29.0677H218.375C218.551 29.0677 218.694 29.1818 218.749 29.3341L221.313 35.7815L223.91 29.3123C223.97 29.1601 224.119 29.0677 224.272 29.0677H225.865C226.079 29.0677 226.255 29.2416 226.255 29.4537V38.3148C226.255 38.5268 226.079 38.7007 225.865 38.7007H224.8C224.585 38.7007 224.41 38.5268 224.41 38.3148V32.6067V32.5795L222.054 38.4561C221.994 38.6083 221.846 38.7007 221.692 38.7007H220.83C220.66 38.6953 220.511 38.5811 220.462 38.4289ZM201.448 33.8679C201.448 34.4333 201.508 34.928 201.629 35.3466C201.744 35.7488 201.92 36.0859 202.145 36.3523C202.37 36.6132 202.645 36.8089 202.969 36.9394C203.304 37.0753 203.699 37.146 204.155 37.146C204.616 37.146 205.011 37.0807 205.352 36.9448C205.676 36.8143 205.945 36.6186 206.164 36.3631C206.389 36.0968 206.56 35.7597 206.675 35.3574C206.796 34.9388 206.856 34.4441 206.856 33.8733C206.856 33.3134 206.796 32.8241 206.68 32.4055C206.565 32.0033 206.395 31.6716 206.175 31.4053C205.956 31.1443 205.687 30.9541 205.368 30.8236C205.033 30.6877 204.638 30.6224 204.182 30.6224C203.721 30.6224 203.326 30.6931 202.985 30.829C202.656 30.9595 202.381 31.1552 202.156 31.4161C201.925 31.6825 201.755 32.0196 201.64 32.4164C201.508 32.8241 201.448 33.308 201.448 33.8679ZM208.767 33.8679C208.767 34.6181 208.668 35.2922 208.47 35.8847C208.267 36.4936 207.96 37.0209 207.553 37.4721C207.142 37.9233 206.647 38.2604 206.076 38.4833C205.511 38.7062 204.874 38.8149 204.166 38.8149C203.446 38.8149 202.798 38.7062 202.227 38.4887C201.651 38.2658 201.157 37.9342 200.75 37.4939C200.344 37.0535 200.042 36.5262 199.839 35.9065C199.641 35.3031 199.542 34.6181 199.542 33.857C199.542 33.0959 199.641 32.4164 199.839 31.8184C200.042 31.2041 200.344 30.6822 200.75 30.2419C201.162 29.8016 201.656 29.47 202.233 29.2471C202.798 29.0296 203.446 28.9209 204.171 28.9209C204.879 28.9209 205.511 29.0296 206.076 29.2525C206.647 29.4754 207.136 29.8124 207.548 30.2582C207.954 30.704 208.262 31.2313 208.465 31.8402C208.668 32.4436 208.767 33.1177 208.767 33.8679ZM187.254 38.3093V29.4482C187.254 29.2362 187.43 29.0622 187.644 29.0622H188.709C188.924 29.0622 189.099 29.2362 189.099 29.4482V36.9937H192.756C192.97 36.9937 193.146 37.1677 193.146 37.3797V38.3093C193.146 38.5213 192.97 38.6953 192.756 38.6953H187.639C187.43 38.6953 187.254 38.5213 187.254 38.3093ZM179.809 35.9554C179.809 36.4012 179.721 36.8035 179.551 37.1623C179.375 37.5211 179.117 37.8309 178.777 38.0864L178.749 38.1027C178.42 38.3419 178.041 38.5213 177.607 38.6409C177.174 38.7605 176.69 38.8203 176.152 38.8203C175.592 38.8203 175.087 38.7823 174.648 38.7116C174.192 38.6355 173.802 38.5268 173.478 38.3746C173.336 38.3093 173.253 38.1734 173.253 38.0266V37.0318C173.253 36.8198 173.429 36.6458 173.643 36.6458C173.709 36.6458 173.769 36.6621 173.824 36.6893C173.983 36.7545 174.159 36.8143 174.346 36.8687C174.549 36.9285 174.752 36.9774 174.95 37.0209C175.158 37.0644 175.367 37.0916 175.576 37.1133C175.773 37.1351 175.982 37.1405 176.196 37.1405C176.526 37.1405 176.806 37.1133 177.042 37.0535C177.261 36.9992 177.443 36.9231 177.58 36.8252C177.706 36.7328 177.805 36.6241 177.865 36.499C177.926 36.374 177.959 36.2218 177.959 36.0478C177.959 35.9228 177.948 35.8141 177.92 35.7217C177.898 35.6347 177.865 35.564 177.827 35.4988L177.821 35.4879C177.778 35.4281 177.723 35.3629 177.646 35.3031C177.558 35.227 177.448 35.1563 177.322 35.0856L177.316 35.0802C177.185 35.0095 177.009 34.928 176.795 34.841C176.564 34.7486 176.306 34.6507 176.02 34.5529C175.57 34.3952 175.18 34.2267 174.856 34.0364C174.516 33.8407 174.242 33.6287 174.033 33.3949C173.813 33.1557 173.649 32.8785 173.539 32.5632C173.434 32.2588 173.379 31.9217 173.379 31.552C173.379 31.1552 173.462 30.791 173.621 30.4648C173.78 30.1386 174.016 29.8559 174.335 29.6167C174.642 29.3884 174.994 29.2145 175.389 29.1003C175.779 28.9861 176.207 28.9318 176.679 28.9318C177.64 28.9318 178.535 29.1057 179.348 29.4482C179.54 29.5298 179.633 29.7418 179.562 29.932L179.233 30.829C179.161 31.0302 178.936 31.128 178.733 31.0573C178.722 31.0519 178.711 31.0465 178.7 31.041C178.349 30.8997 178.008 30.7964 177.668 30.7257C177.327 30.6551 176.992 30.617 176.657 30.617C176.41 30.617 176.191 30.6442 176.004 30.6931C175.828 30.7366 175.686 30.8073 175.565 30.8943C175.455 30.9758 175.373 31.0682 175.323 31.1769C175.268 31.2857 175.246 31.4161 175.246 31.5684C175.246 31.6934 175.257 31.8076 175.279 31.9C175.301 31.9869 175.329 32.0631 175.367 32.1283C175.406 32.1935 175.46 32.2588 175.532 32.324C175.609 32.3947 175.708 32.4653 175.823 32.5306C175.949 32.6067 176.108 32.6828 176.306 32.7643C176.515 32.8513 176.756 32.9437 177.031 33.0416L177.053 33.047C177.547 33.2155 177.964 33.3949 178.31 33.5798C178.678 33.7755 178.963 33.9821 179.178 34.2049C179.397 34.4333 179.562 34.6942 179.672 34.9932C179.754 35.2922 179.809 35.6129 179.809 35.9554ZM163.914 38.3093V29.4482C163.914 29.2362 164.089 29.0622 164.303 29.0622H165.369C165.583 29.0622 165.758 29.2362 165.758 29.4482V38.3093C165.758 38.5213 165.583 38.6953 165.369 38.6953H164.303C164.089 38.6953 163.914 38.5213 163.914 38.3093ZM153.838 37.6678C153.838 37.4993 153.86 37.3417 153.904 37.2003C153.954 37.0427 154.03 36.9122 154.129 36.798C154.234 36.6839 154.36 36.5969 154.508 36.5425C154.645 36.4882 154.794 36.4664 154.964 36.4664C155.129 36.4664 155.282 36.4936 155.425 36.5425C155.573 36.5969 155.705 36.6784 155.815 36.7926C155.925 36.9068 156.007 37.0372 156.056 37.1949C156.106 37.3362 156.128 37.4939 156.128 37.6678C156.128 37.8364 156.106 37.994 156.056 38.1408C156.002 38.2984 155.925 38.4289 155.815 38.5431L155.804 38.5539C155.694 38.6627 155.568 38.7388 155.425 38.7931C155.288 38.8475 155.134 38.8693 154.969 38.8693C154.821 38.8693 154.678 38.8475 154.546 38.7986C154.409 38.7497 154.288 38.679 154.179 38.5811L154.168 38.5703C154.052 38.467 153.97 38.3311 153.915 38.168C153.86 38.0158 153.838 37.8527 153.838 37.6678ZM141.693 33.3569H142.764C143.109 33.3569 143.4 33.3243 143.642 33.2645C143.862 33.2047 144.037 33.1231 144.169 33.0144C144.295 32.9111 144.389 32.7806 144.455 32.623C144.521 32.4545 144.559 32.2479 144.559 32.0087C144.559 31.7641 144.526 31.5629 144.455 31.3998C144.394 31.2531 144.301 31.1389 144.186 31.0519C144.048 30.9541 143.867 30.878 143.631 30.8236C143.373 30.7638 143.06 30.7366 142.692 30.7366H141.693V33.3569ZM141.693 35.0095V38.3093C141.693 38.5213 141.517 38.6953 141.303 38.6953H140.238C140.024 38.6953 139.848 38.5213 139.848 38.3093V29.4482C139.848 29.2362 140.024 29.0622 140.238 29.0622H142.753C143.346 29.0622 143.867 29.1166 144.317 29.2308C144.784 29.3449 145.174 29.5298 145.487 29.769C145.811 30.019 146.052 30.3289 146.212 30.704C146.365 31.0682 146.448 31.4814 146.448 31.9489C146.448 32.623 146.267 33.1938 145.904 33.6559C145.63 34.0092 145.256 34.2919 144.784 34.5094L147.035 38.1027C147.151 38.2821 147.09 38.5213 146.909 38.6301C146.843 38.6681 146.777 38.6899 146.706 38.6899H145.443C145.289 38.6899 145.157 38.6029 145.092 38.4778L143 35.0041L141.693 35.0095ZM129.482 34.1778L128.614 31.9598L128.565 31.8293L128.521 31.9543L128.51 31.9815L127.642 34.1778H129.482ZM131.151 38.4235L130.119 35.8793H126.961L125.929 38.4507C125.869 38.6029 125.721 38.6953 125.567 38.6953H124.485C124.271 38.6953 124.095 38.5213 124.095 38.3093C124.095 38.2495 124.112 38.1897 124.134 38.1408L127.752 29.2688C127.812 29.1166 127.961 29.0296 128.114 29.0296H129.015C129.191 29.0296 129.339 29.1438 129.388 29.3014L132.99 38.1734C133.073 38.3691 132.974 38.592 132.776 38.6735C132.727 38.6899 132.677 38.7007 132.633 38.7007H131.53C131.348 38.6953 131.2 38.5811 131.151 38.4235ZM112.34 38.3093V29.4482C112.34 29.2362 112.515 29.0622 112.73 29.0622H113.795C114.009 29.0622 114.185 29.2362 114.185 29.4482V36.9937H117.841C118.056 36.9937 118.231 37.1677 118.231 37.3797V38.3093C118.231 38.5213 118.056 38.6953 117.841 38.6953H112.724C112.515 38.6953 112.34 38.5213 112.34 38.3093ZM99.3159 38.3093V29.4482C99.3159 29.2362 99.4916 29.0622 99.7057 29.0622H100.771C100.985 29.0622 101.161 29.2362 101.161 29.4482V36.9937H104.818C105.032 36.9937 105.207 37.1677 105.207 37.3797V38.3093C105.207 38.5213 105.032 38.6953 104.818 38.6953H99.7003C99.4916 38.6953 99.3159 38.5213 99.3159 38.3093ZM84.3868 33.8679C84.3868 34.4333 84.4472 34.928 84.568 35.3466C84.6833 35.7488 84.859 36.0859 85.0841 36.3523C85.3092 36.6132 85.5838 36.8089 85.9077 36.9394C86.2426 37.0753 86.638 37.146 87.0937 37.146C87.5549 37.146 87.9502 37.0807 88.2907 36.9448C88.6146 36.8143 88.8891 36.6186 89.1033 36.3631C89.3284 36.0968 89.4986 35.7597 89.6139 35.3574C89.7347 34.9388 89.7951 34.4441 89.7951 33.8733C89.7951 33.3134 89.7347 32.8241 89.6194 32.4055C89.5041 32.0033 89.3339 31.6716 89.1143 31.4053C88.8946 31.1443 88.6256 30.9541 88.3071 30.8236C87.9722 30.6877 87.5769 30.6224 87.1211 30.6224C86.6599 30.6224 86.2646 30.6931 85.9242 30.829C85.5947 30.9595 85.3202 31.1552 85.0951 31.4161C84.8645 31.6825 84.6943 32.0196 84.579 32.4164C84.4472 32.8241 84.3868 33.308 84.3868 33.8679ZM91.7059 33.8679C91.7059 34.6181 91.607 35.2922 91.4094 35.8847C91.2062 36.4936 90.8987 37.0209 90.4924 37.4721C90.0806 37.9233 89.5865 38.2604 89.0154 38.4833C88.4499 38.7062 87.813 38.8149 87.1047 38.8149C86.3854 38.8149 85.7375 38.7062 85.1665 38.4887C84.5845 38.2658 84.0958 37.9342 83.6895 37.4939C83.2832 37.0535 82.9812 36.5262 82.778 35.9065C82.5804 35.3031 82.4815 34.6181 82.4815 33.857C82.4815 33.0959 82.5804 32.4164 82.778 31.8184C82.9812 31.2041 83.2832 30.6822 83.6895 30.2419C84.1013 29.8016 84.5954 29.47 85.172 29.2471C85.7375 29.0296 86.3854 28.9209 87.1102 28.9209C87.8185 28.9209 88.4499 29.0296 89.0154 29.2525C89.5865 29.4754 90.0751 29.8124 90.4869 30.2582C90.8932 30.704 91.2007 31.2313 91.4039 31.8402C91.6015 32.4436 91.7059 33.1177 91.7059 33.8679ZM74.7067 29.0622H75.8543C76.0684 29.0622 76.2441 29.2362 76.2441 29.4482C76.2441 29.5026 76.2332 29.5569 76.2112 29.6004L72.9113 38.4398C72.8564 38.5974 72.7027 38.6899 72.5489 38.6899H71.4947C71.319 38.6899 71.1708 38.5757 71.1213 38.418L67.8379 29.5787C67.7666 29.3775 67.8654 29.1601 68.0685 29.084C68.1125 29.0677 68.1564 29.0622 68.2003 29.0622H69.3314C69.5071 29.0622 69.6608 29.1818 69.7048 29.3449L71.8022 35.053C71.8791 35.2596 71.9504 35.4607 72.0163 35.6619C72.0877 35.4444 72.1646 35.2324 72.2414 35.0149L72.2469 34.9986L74.3389 29.3177C74.3993 29.1601 74.553 29.0677 74.7067 29.0622ZM59.2286 34.1778L58.361 31.9598L58.3116 31.8293L58.2677 31.9543L58.2567 31.9815L57.3892 34.1778H59.2286ZM60.8977 38.4235L59.8655 35.8793H56.7084L55.6761 38.4507C55.6157 38.6029 55.4675 38.6953 55.3137 38.6953H54.2321C54.0179 38.6953 53.8422 38.5213 53.8422 38.3093C53.8422 38.2495 53.8587 38.1897 53.8807 38.1408L57.499 29.2688C57.5594 29.1166 57.7077 29.0296 57.8614 29.0296H58.7619C58.9376 29.0296 59.0858 29.1438 59.1352 29.3014L62.7371 38.1734C62.8195 38.3691 62.7206 38.592 62.523 38.6735C62.4736 38.6899 62.4241 38.7007 62.3802 38.7007H61.2766C61.0954 38.6953 60.9471 38.5811 60.8977 38.4235ZM47.6652 35.9554C47.6652 36.4012 47.5774 36.8035 47.4072 37.1623C47.2315 37.5211 46.9734 37.8309 46.633 38.0864L46.6055 38.1027C46.2761 38.3419 45.8972 38.5213 45.4635 38.6409C45.0297 38.7605 44.5465 38.8203 44.0084 38.8203C43.4484 38.8203 42.9433 38.7823 42.504 38.7116C42.0483 38.6355 41.6584 38.5268 41.3345 38.3746C41.1917 38.3093 41.1094 38.1734 41.1094 38.0266V37.0318C41.1094 36.8198 41.2851 36.6458 41.4992 36.6458C41.5651 36.6458 41.6255 36.6621 41.6804 36.6893C41.8396 36.7545 42.0153 36.8143 42.202 36.8687C42.4052 36.9285 42.6083 36.9774 42.806 37.0209C43.0146 37.0644 43.2233 37.0916 43.4319 37.1133C43.6296 37.1351 43.8382 37.1405 44.0524 37.1405C44.3763 37.1405 44.6618 37.1133 44.8924 37.0535C45.1121 36.9992 45.2878 36.9231 45.425 36.8252C45.5513 36.7328 45.6502 36.6241 45.7106 36.499C45.7709 36.374 45.8039 36.2218 45.8039 36.0478C45.8039 35.9228 45.7929 35.8141 45.7709 35.7217C45.749 35.6347 45.716 35.564 45.6776 35.4988L45.6721 35.4879C45.6282 35.4281 45.5678 35.3629 45.4964 35.3031C45.4086 35.227 45.2987 35.1563 45.1725 35.0856L45.167 35.0802C45.0352 35.0095 44.8595 34.928 44.6454 34.841C44.4148 34.7486 44.1567 34.6507 43.8712 34.5529C43.4209 34.3952 43.0311 34.2267 42.7072 34.0364C42.3667 33.8407 42.0922 33.6287 41.8836 33.3949C41.6639 33.1557 41.4992 32.8785 41.3894 32.5632C41.2851 32.2588 41.2302 31.9217 41.2302 31.552C41.2302 31.1552 41.3125 30.791 41.4718 30.4648C41.631 30.1386 41.8671 29.8559 42.1855 29.6167C42.4875 29.3884 42.8444 29.2145 43.2398 29.1003C43.6296 28.9861 44.0579 28.9318 44.5301 28.9318C45.4964 28.9318 46.3859 29.1057 47.1985 29.4482C47.3907 29.5298 47.484 29.7418 47.4127 29.932L47.0832 30.829C47.0118 31.0302 46.7867 31.128 46.5836 31.0573C46.5726 31.0519 46.5616 31.0465 46.5506 31.041C46.1992 30.8997 45.8588 30.7964 45.5184 30.7257C45.178 30.6551 44.843 30.617 44.5081 30.617C44.261 30.617 44.0414 30.6442 43.8547 30.6931C43.679 30.7366 43.5362 30.8073 43.4155 30.8943C43.3056 30.9758 43.2233 31.0682 43.1739 31.1769C43.119 31.2857 43.0915 31.4161 43.0915 31.5684C43.0915 31.6934 43.1025 31.8076 43.1244 31.9C43.1464 31.9869 43.1739 32.0631 43.2123 32.1283C43.2507 32.1935 43.3056 32.2588 43.377 32.324C43.4539 32.3947 43.5527 32.4653 43.668 32.5306C43.7943 32.6067 43.9535 32.6828 44.1512 32.7643C44.3598 32.8513 44.6014 32.9437 44.876 33.0416L44.8979 33.047C45.3921 33.2155 45.8094 33.3949 46.1553 33.5798C46.5232 33.7755 46.8087 33.9821 47.0228 34.2049C47.2424 34.4333 47.4072 34.6942 47.517 34.9932C47.6103 35.2922 47.6652 35.6129 47.6652 35.9554Z" fill="#808183"/>
</svg>
