<svg width="18" height="12" viewBox="0 0 18 12" fill="none" xmlns="http://www.w3.org/2000/svg">
<path d="M4.275 0.349999H5.865L10.005 11H8.235L7.11 8.105H3L1.89 11H0.105L4.275 0.349999ZM6.78 6.86L5.07 2.195L3.3 6.86H6.78ZM10.4249 8.705C10.4249 8.205 10.5649 7.77 10.8449 7.4C11.1349 7.02 11.5299 6.73 12.0299 6.53C12.5299 6.32 13.1099 6.215 13.7699 6.215C14.1199 6.215 14.4749 6.24 14.8349 6.29C15.2049 6.34 15.5299 6.42 15.8099 6.53V6.035C15.8099 5.485 15.6449 5.055 15.3149 4.745C14.9849 4.435 14.5099 4.28 13.8899 4.28C13.4499 4.28 13.0349 4.36 12.6449 4.52C12.2549 4.67 11.8399 4.885 11.3999 5.165L10.8449 4.055C11.3649 3.705 11.8849 3.445 12.4049 3.275C12.9349 3.105 13.4899 3.02 14.0699 3.02C15.1199 3.02 15.9449 3.3 16.5449 3.86C17.1549 4.41 17.4599 5.195 17.4599 6.215V9.14C17.4599 9.33 17.4899 9.465 17.5499 9.545C17.6199 9.625 17.7349 9.67 17.8949 9.68V11C17.7449 11.03 17.6099 11.05 17.4899 11.06C17.3699 11.07 17.2699 11.075 17.1899 11.075C16.8399 11.075 16.5749 10.99 16.3949 10.82C16.2149 10.65 16.1099 10.45 16.0799 10.22L16.0349 9.77C15.6949 10.21 15.2599 10.55 14.7299 10.79C14.1999 11.03 13.6649 11.15 13.1249 11.15C12.6049 11.15 12.1399 11.045 11.7299 10.835C11.3199 10.615 10.9999 10.32 10.7699 9.95C10.5399 9.58 10.4249 9.165 10.4249 8.705ZM15.4199 9.185C15.5399 9.055 15.6349 8.925 15.7049 8.795C15.7749 8.665 15.8099 8.55 15.8099 8.45V7.55C15.5299 7.44 15.2349 7.36 14.9249 7.31C14.6149 7.25 14.3099 7.22 14.0099 7.22C13.4099 7.22 12.9199 7.34 12.5399 7.58C12.1699 7.82 11.9849 8.15 11.9849 8.57C11.9849 8.8 12.0449 9.02 12.1649 9.23C12.2949 9.44 12.4749 9.61 12.7049 9.74C12.9449 9.87 13.2399 9.935 13.5899 9.935C13.9499 9.935 14.2949 9.865 14.6249 9.725C14.9549 9.585 15.2199 9.405 15.4199 9.185Z" fill="#257DFF"/>
</svg>
